<?xml version="1.0" encoding="utf-8"?>
<!-- Generator: Adobe Illustrator 16.0.2, SVG Export Plug-In . SVG Version: 6.00 Build 0)  -->
<!DOCTYPE svg PUBLIC "-//W3C//DTD SVG 1.1//EN" "http://www.w3.org/Graphics/SVG/1.1/DTD/svg11.dtd">
<svg version="1.1" id="Layer_1" xmlns="http://www.w3.org/2000/svg" xmlns:xlink="http://www.w3.org/1999/xlink" x="0px" y="0px"
	 width="497.014px" height="91.496px" viewBox="0 0 497.014 91.496" enable-background="new 0 0 497.014 91.496"
	 xml:space="preserve">
<g id="Layer_1_1_">
	
		<image overflow="visible" enable-background="new    " width="1041" height="509" xlink:href="../Vistaprevia.jpg"  transform="matrix(6.5161 0 0 6.5161 -6382.0171 1850.4365)">
	</image>
</g>
<g id="Wave_2">
	<path fill="#22A0A8" d="M-1938.813,1082.386c0,0,229.813-174,637.813-180s636.3-273.685,984.229-741.591H-20v1817.637h-1920
		L-1938.813,1082.386z"/>
	<path fill="#22A0A8" d="M-6237.813,1082.386c0,0,229.813-174,637.813-180s636.3-273.685,984.229-741.591H-4319v1817.637h-1920
		L-6237.813,1082.386z"/>
</g>
<g id="Wave_1">
	<path fill="#16712B" d="M1983.6,1825.405v19.5c0,0-224.948,48-838.42-66c0,0-398.06-104.109-1081.58-101.09v-17.101l1.181-0.33
		c0,0,796.819-66,1357.819,106C1422.6,1766.386,1662.57,1834.405,1983.6,1825.405z"/>
	<path fill="#16712B" d="M-2016,1876.985l-15,4.21v-4.021C-2026.01,1877.116-2021.01,1877.056-2016,1876.985z"/>
	
		<linearGradient id="SVGID_1_" gradientUnits="userSpaceOnUse" x1="1023.5996" y1="-4513.125" x2="1023.5995" y2="-1607.9402" gradientTransform="matrix(1 0 0 -1 0 92.4961)">
		<stop  offset="0.1362" style="stop-color:#12491D"/>
		<stop  offset="0.449" style="stop-color:#134B1E"/>
		<stop  offset="0.6519" style="stop-color:#16531F"/>
		<stop  offset="0.8235" style="stop-color:#1B6222"/>
		<stop  offset="0.9769" style="stop-color:#227825"/>
		<stop  offset="1" style="stop-color:#237D26"/>
	</linearGradient>
	<path fill="url(#SVGID_1_)" d="M1983.6,1877.176v2675.21c-482.96,119.78-834.17,0-834.17,0c-618.06-207.25-1085.83,0-1085.83,0
		v-2573.95l1.19-249.27c-0.4,0-0.79,0-1.19,0.01v-24.71c94.4-7.99,335.66-12.51,790.419,72
		C854.02,1776.466,1270.75,1885.456,1983.6,1877.176z"/>
	
		<linearGradient id="SVGID_2_" gradientUnits="userSpaceOnUse" x1="-980" y1="-7067.6895" x2="-980.0002" y2="-5753.1089" gradientTransform="matrix(1 0 0 -1 0 92.4961)">
		<stop  offset="0.1362" style="stop-color:#12491D"/>
		<stop  offset="0.449" style="stop-color:#134B1E"/>
		<stop  offset="0.6519" style="stop-color:#16531F"/>
		<stop  offset="0.8235" style="stop-color:#1B6222"/>
		<stop  offset="0.9769" style="stop-color:#227825"/>
		<stop  offset="1" style="stop-color:#237D26"/>
	</linearGradient>
	<path fill="url(#SVGID_2_)" d="M-20.59,5899.096v1261.09h-1918.82V5898.706c160.76-39.819,306.891-53.101,430.33-53.101
		c247.16,0,403.25,53.24,403.25,53.24C-500.471,6101.836-39.291,5907.186-20.59,5899.096z"/>
	
		<linearGradient id="SVGID_3_" gradientUnits="userSpaceOnUse" x1="-5278.999" y1="-7067.6895" x2="-5278.999" y2="-5753.1094" gradientTransform="matrix(1 0 0 -1 0 92.4961)">
		<stop  offset="0.1362" style="stop-color:#12491D"/>
		<stop  offset="0.449" style="stop-color:#134B1E"/>
		<stop  offset="0.6519" style="stop-color:#16531F"/>
		<stop  offset="0.8235" style="stop-color:#1B6222"/>
		<stop  offset="0.9769" style="stop-color:#227825"/>
		<stop  offset="1" style="stop-color:#237D26"/>
	</linearGradient>
	<path fill="url(#SVGID_3_)" d="M-4319.589,5899.096v1261.09h-1918.82V5898.706c160.76-39.819,306.891-53.101,430.33-53.101
		c247.16,0,403.25,53.24,403.25,53.24C-4799.47,6101.836-4338.291,5907.186-4319.589,5899.096z"/>
	<path fill="#16712B" d="M-1671.049,4318.598"/>
	<rect x="63.6" y="1534.516" fill="none" width="1920" height="1697.66"/>
	<path fill="#16712B" d="M-4319,1825.405v19.5c0,0-224.949,48-838.42-66c0,0-398.06-104.109-1081.58-101.09v-17.101l1.181-0.33
		c0,0,796.819-66,1357.819,106C-4880,1766.386-4640.029,1834.405-4319,1825.405z"/>
	
		<linearGradient id="SVGID_4_" gradientUnits="userSpaceOnUse" x1="-5279" y1="-4513.1255" x2="-5279" y2="-1607.9404" gradientTransform="matrix(1 0 0 -1 0 92.4961)">
		<stop  offset="0.1362" style="stop-color:#12491D"/>
		<stop  offset="0.449" style="stop-color:#134B1E"/>
		<stop  offset="0.6519" style="stop-color:#16531F"/>
		<stop  offset="0.8235" style="stop-color:#1B6222"/>
		<stop  offset="0.9769" style="stop-color:#227825"/>
		<stop  offset="1" style="stop-color:#237D26"/>
	</linearGradient>
	<path fill="url(#SVGID_4_)" d="M-4319,1877.176v2675.21c-482.96,119.78-834.17,0-834.17,0c-618.06-207.25-1085.83,0-1085.83,0
		v-2573.95l1.19-249.27c-0.4,0-0.79,0-1.19,0.01v-24.71c94.4-7.99,335.66-12.51,790.42,72
		C-5448.58,1776.466-5031.85,1885.456-4319,1877.176z"/>
	<rect x="-6239" y="1534.516" fill="none" width="1920" height="1697.66"/>
	<rect x="-1939.41" y="5845.605" fill="none" width="1918.82" height="1314.58"/>
</g>
<g enable-background="new    ">
	<path fill="#22A0A8" d="M8.756,68.324c-2.24-0.32-4-0.692-5.28-1.12l0.8-4.4h11.2c3.893,0,6.866-0.76,8.92-2.28
		c2.053-1.52,3.347-3.826,3.88-6.92c0.106-0.853,0.16-1.439,0.16-1.76c0-2.026-0.654-3.64-1.96-4.84
		c-1.308-1.2-3.268-2.466-5.88-3.8c-2.294-1.227-4.134-2.32-5.52-3.28c-1.388-0.96-2.574-2.292-3.56-4
		c-0.987-1.706-1.48-3.84-1.48-6.4c0-1.012,0.132-2.319,0.4-3.92c0.8-4.479,2.826-8,6.08-10.56c3.252-2.56,7.546-3.84,12.88-3.84
		c2.613,0,5.04,0.16,7.28,0.479c2.24,0.32,3.973,0.694,5.2,1.12l-0.8,4.4h-11.2c-2.614,0-4.8,0.747-6.56,2.24
		c-1.76,1.493-2.854,3.547-3.28,6.159c-0.107,0.48-0.16,1.12-0.16,1.92c0,1.548,0.36,2.881,1.08,4c0.72,1.12,1.6,2.028,2.64,2.721
		c1.04,0.693,2.52,1.547,4.44,2.56c2.187,1.174,3.96,2.24,5.32,3.2c1.36,0.96,2.506,2.254,3.44,3.88c0.932,1.628,1.4,3.64,1.4,6.04
		c0,1.228-0.107,2.454-0.32,3.68c-0.854,4.96-3.054,8.734-6.6,11.32c-3.548,2.588-8.627,3.88-15.24,3.88
		C13.422,68.804,10.996,68.644,8.756,68.324z"/>
	<path fill="#22A0A8" d="M47.036,65.684c-2.214-2.08-3.32-5.439-3.32-10.08c0-1.866,0.266-4.399,0.8-7.6
		c1.28-7.412,3.52-12.732,6.72-15.96c3.2-3.227,7.493-4.84,12.88-4.84c4.373,0,7.653,1.054,9.84,3.16
		c2.186,2.107,3.28,5.507,3.28,10.199c0,2.134-0.24,4.614-0.72,7.44c-1.334,7.414-3.6,12.733-6.8,15.96
		c-3.2,3.228-7.494,4.84-12.88,4.84C52.516,68.804,49.248,67.764,47.036,65.684z M63.036,60.124c1.52-2.32,2.813-6.36,3.88-12.12
		c0.586-3.52,0.88-6.24,0.88-8.16c0-2.72-0.4-4.64-1.2-5.76c-0.8-1.12-1.92-1.68-3.36-1.68c-2.027,0-3.8,1.159-5.32,3.479
		s-2.788,6.36-3.8,12.12c-0.587,3.147-0.88,5.92-0.88,8.32c0,2.667,0.386,4.547,1.16,5.64c0.772,1.094,1.88,1.64,3.32,1.64
		C59.742,63.604,61.516,62.444,63.036,60.124z"/>
	<path fill="#22A0A8" d="M85.875,66.844c-1.868-1.306-2.8-3.64-2.8-7c0-0.96,0.133-2.24,0.4-3.84l4.96-28h9.6l-4.96,28
		c-0.107,0.48-0.16,1.147-0.16,2c0,1.867,0.492,3.2,1.48,4c0.986,0.8,2.252,1.2,3.8,1.2c0.96,0,1.853-0.16,2.68-0.48
		c0.826-0.319,1.506-0.692,2.04-1.12l5.92-33.6h9.6l-7.04,40h-6.8l-0.8-2.4h-0.4c-2.667,2.134-5.92,3.2-9.76,3.2
		C90.328,68.804,87.742,68.15,85.875,66.844z"/>
	<path fill="#22A0A8" d="M127.194,66.804c-1.84-1.332-2.76-3.732-2.76-7.2c0-1.546,0.133-3.012,0.4-4.399l3.6-20.4h-4.4l1.04-6h4.4
		l1.68-9.6h9.6l-1.68,9.6h10.8l-0.8,4.4c-1.44,0.428-3.107,0.8-5,1.12c-1.894,0.319-3.774,0.479-5.64,0.479h-0.4l-3.6,20.4
		c-0.16,1.12-0.24,2.08-0.24,2.88c0,1.813,0.373,3.12,1.12,3.92c0.746,0.8,1.706,1.2,2.88,1.2h7.2l-0.72,4
		c-1.067,0.428-2.587,0.8-4.56,1.12c-1.974,0.319-3.734,0.479-5.28,0.479C131.581,68.804,129.034,68.137,127.194,66.804z"/>
	<path fill="#22A0A8" d="M161.233,12.004h9.6l-3.12,17.6c2.292-1.6,5.093-2.399,8.4-2.399c3.307,0,5.893,0.653,7.76,1.96
		c1.866,1.308,2.8,3.64,2.8,7c0,0.96-0.134,2.24-0.4,3.84l-4.88,28h-9.6l4.88-28c0.16-0.8,0.24-1.492,0.24-2.08
		c0-1.813-0.508-3.12-1.52-3.92c-1.014-0.8-2.294-1.2-3.84-1.2c-0.96,0-1.854,0.16-2.68,0.48c-0.828,0.319-1.48,0.693-1.96,1.12
		l-5.92,33.6h-9.6L161.233,12.004z"/>
	<path fill="#22A0A8" d="M221.873,12.804c2.08-0.586,4.227-1,6.44-1.24c2.212-0.239,4.84-0.359,7.88-0.359
		c5.492,0,9.52,1.04,12.08,3.12s3.839,5.467,3.839,10.16c0,1.813-0.213,4.054-0.64,6.72c-1.333,7.413-3.627,12.733-6.88,15.96
		c-3.254,3.228-7.654,4.84-13.2,4.84c-0.64,0-1.68-0.08-3.12-0.24s-2.614-0.346-3.52-0.56l-2.96,16.8h-9.6L221.873,12.804z
		 M230.113,45.604c3.146,0,5.652-1.052,7.52-3.159c1.866-2.106,3.28-5.853,4.24-11.24c0.373-2.08,0.56-4.026,0.56-5.84
		c0-2.986-0.614-5.093-1.84-6.32c-1.228-1.227-3.067-1.84-5.52-1.84h-4.4l-4.96,28.399H230.113z"/>
	<path fill="#22A0A8" d="M257.474,66.844c-1.868-1.306-2.801-3.64-2.801-7c0-0.96,0.133-2.24,0.4-3.84l4.96-28h9.6l-4.96,28
		c-0.107,0.48-0.16,1.147-0.16,2c0,1.867,0.492,3.2,1.48,4c0.986,0.8,2.252,1.2,3.8,1.2c0.96,0,1.853-0.16,2.681-0.48
		c0.826-0.319,1.506-0.692,2.039-1.12l5.92-33.6h9.601l-7.04,40h-6.801l-0.799-2.4h-0.4c-2.668,2.134-5.92,3.2-9.76,3.2
		C261.925,68.804,259.339,68.15,257.474,66.844z"/>
	<path fill="#22A0A8" d="M299.872,68.244c-1.92-0.373-3.867-0.986-5.84-1.84l9.6-54.4h9.601l-3.04,17.2c2.133-1.333,4.506-2,7.12-2
		c7.68,0,11.52,4.399,11.52,13.2c0,2.188-0.239,4.72-0.72,7.6c-1.334,7.468-3.68,12.8-7.04,16s-8.107,4.8-14.24,4.8
		C304.112,68.804,301.792,68.616,299.872,68.244z M307.792,63.204c2.613,0,4.801-1.12,6.561-3.36s3.146-6.187,4.16-11.84
		c0.479-2.88,0.72-5.28,0.72-7.2c0-2.88-0.468-4.933-1.4-6.16c-0.934-1.226-2.228-1.84-3.88-1.84c-0.96,0-1.854,0.16-2.68,0.48
		c-0.827,0.319-1.48,0.693-1.96,1.12l-5.12,28.8H307.792z"/>
	<path fill="#22A0A8" d="M333.392,68.004l9.841-56h9.6l-9.84,56H333.392z"/>
	<path fill="#22A0A8" d="M354.191,68.004l7.04-40h9.601l-7.04,40H354.191z M362.032,23.204l1.68-9.601h9.6l-1.68,9.601H362.032z"/>
	<path fill="#22A0A8" d="M378.791,65.684c-2.268-2.08-3.4-5.466-3.4-10.16c0-2.239,0.24-4.746,0.72-7.52
		c1.28-7.412,3.521-12.732,6.721-15.96c3.199-3.227,7.492-4.84,12.88-4.84c1.866,0,3.72,0.16,5.56,0.479
		c1.84,0.32,3.373,0.694,4.601,1.12l-0.721,4h-8.8c-2.613,0-4.8,1.12-6.56,3.36c-1.761,2.24-3.12,6.188-4.08,11.84
		c-0.48,2.773-0.721,5.147-0.721,7.12c0,2.987,0.561,5.08,1.681,6.28c1.12,1.199,2.826,1.8,5.12,1.8h8.8l-0.72,4
		c-1.388,0.428-3.04,0.8-4.961,1.12c-1.92,0.319-3.813,0.479-5.68,0.479C384.537,68.804,381.057,67.764,378.791,65.684z"/>
	<path fill="#22A0A8" d="M406.59,68.004l7.04-40h9.601l-7.04,40H406.59z M414.431,23.204l1.68-9.601h9.6l-1.68,9.601H414.431z"/>
	<path fill="#22A0A8" d="M432.389,66.804c-1.84-1.332-2.76-3.732-2.76-7.2c0-1.546,0.133-3.012,0.4-4.399l3.6-20.4h-4.399l1.04-6
		h4.399l1.68-9.6h9.601l-1.68,9.6h10.8l-0.8,4.4c-1.44,0.428-3.108,0.8-5,1.12c-1.895,0.319-3.774,0.479-5.641,0.479h-0.399
		l-3.601,20.4c-0.16,1.12-0.24,2.08-0.24,2.88c0,1.813,0.373,3.12,1.12,3.92c0.746,0.8,1.706,1.2,2.88,1.2h7.2l-0.72,4
		c-1.067,0.428-2.588,0.8-4.561,1.12c-1.974,0.319-3.733,0.479-5.279,0.479C436.775,68.804,434.229,68.137,432.389,66.804z"/>
	<path fill="#22A0A8" d="M460.429,84.324c-1.814-0.32-3.334-0.694-4.561-1.12l0.72-4h8.801c3.146,0,5.64-0.974,7.479-2.92
		c1.84-1.948,3.16-5.24,3.96-9.88c-2.24,1.6-5.04,2.399-8.399,2.399c-3.308,0-5.895-0.653-7.761-1.96c-1.867-1.306-2.8-3.64-2.8-7
		c0-0.96,0.133-2.24,0.4-3.84l4.96-28h9.6l-4.96,28c-0.107,0.48-0.16,1.147-0.16,2c0,1.867,0.493,3.2,1.48,4
		c0.986,0.8,2.252,1.2,3.8,1.2c0.96,0,1.853-0.16,2.68-0.48c0.826-0.319,1.507-0.692,2.04-1.12l5.92-33.6h9.601l-6.48,36.8
		c-1.279,7.093-3.587,12.2-6.92,15.32c-3.334,3.12-7.96,4.68-13.88,4.68C464.081,84.804,462.241,84.644,460.429,84.324z"/>
</g>
<g id="Header">
	<path fill="#122C1F" d="M-20.595-142.614v61.61h-1594.378c-41.998-1.496-93.572,42.788-96.612,85.62
		c-3.343,47.104-38.19,86.88-85.29,86.88h-142.529v-234.11H-20.595z"/>
	<path fill="#122C1F" d="M-4319.595-142.614v61.61h-1594.378c-41.998-1.496-93.572,42.788-96.612,85.62
		c-3.343,47.104-38.19,86.88-85.29,86.88h-142.529v-234.11H-4319.595z"/>
</g>
</svg>
